# xmcd
#
# Track frame offsets:
#	150
#	17060
#	30550
#	43590
#	63552
#	79822
#	96097
#	113245
#	130057
#	143312
#	158760
#
# Disc length: 2347 seconds
#
# Revision: 1
# Processed by: cddbd v1.5.2PL0 Copyright (c) Steve Scherf et al.
# Submitted via: audiograbber 1.83.01
#
DISCID=8309290b
DTITLE=David Hamburger - King Of The Brooklyn Delta
DYEAR=1994
DGENRE=Blues
TTITLE0=King Of The Brooklyn Delta
TTITLE1=Back Before I Met You
TTITLE2=You Can't Tell Where The Train's Gone
TTITLE3=Presidential Nominee
TTITLE4=A Little Caffeine
TTITLE5=On The Hood Of Your Car
TTITLE6=Kitchen Table
TTITLE7=I'll Take My Gold Star Now
TTITLE8=Your Hair
TTITLE9=Hard To Get
TTITLE10=The Laundromat Of Ill Repute
EXTD=
EXTT0=
EXTT1=
EXTT2=
EXTT3=
EXTT4=
EXTT5=
EXTT6=
EXTT7=
EXTT8=
EXTT9=
EXTT10=
PLAYORDER=
